<svg xmlns="http://www.w3.org/2000/svg" version="1.1" xmlns:xlink="http://www.w3.org/1999/xlink" xmlns:svgjs="http://svgjs.dev/svgjs" width="1500" height="939" viewBox="0 0 1500 939"><g transform="matrix(1,0,0,1,-0.9090909090909918,-1.5145161290323017)"><svg viewBox="0 0 396 248" data-background-color="#8e4739" preserveAspectRatio="xMidYMid meet" height="939" width="1500" xmlns="http://www.w3.org/2000/svg" xmlns:xlink="http://www.w3.org/1999/xlink"><g id="tight-bounds" transform="matrix(1,0,0,1,0.2400000000000091,0.4000000000000057)"><svg viewBox="0 0 395.52 247.2" height="247.2" width="395.52"><g><svg></svg></g><g><svg viewBox="0 0 395.52 247.2" height="247.2" width="395.52"><g transform="matrix(1,0,0,1,75.54432,77.93939374052607)"><svg viewBox="0 0 244.43135999999998 91.32121251894783" height="91.32121251894783" width="244.43135999999998"><g><svg viewBox="0 0 244.43135999999998 91.32121251894783" height="91.32121251894783" width="244.43135999999998"><g><svg viewBox="0 0 244.43136 91.32121251894785" height="91.32121251894783" width="244.43135999999998"><g><svg viewBox="0 0 244.43136 91.32121251894785" height="91.32121251894785" width="244.43136"><g id="textblocktransform"><svg viewBox="0 0 244.43136 91.32121251894785" height="91.32121251894785" width="244.43136" id="textblock"><g><svg viewBox="0 0 244.43136 91.32121251894785" height="91.32121251894785" width="244.43136"><g transform="matrix(1,0,0,1,0,0)"><svg width="244.43136" viewBox="-0.1 -32.35 112.14 41.900000000000006" height="91.32121251894785" data-palette-color="#ddd2c6"><path d="M8.4 9.55L8.1 9.55 7.45 9.4 7.45 9.15Q7.45 9.05 7.35 8.9 7.25 8.75 7.25 8.7L7.25 8.7Q7.25 8.5 7.4 8.03 7.55 7.55 7.5 7.2L7.5 7.2 7.6 7.1Q7.85 6.85 7.75 6.5L7.75 6.5 7.9 6Q7.85 6 7.85 5.85L7.85 5.85 7.85 5.8Q8.1 5.7 8.1 5.6L8.1 5.6Q8.1 5.4 7.88 5.05 7.65 4.7 7.45 4.75L7.45 4.75Q7.3 4.5 7.28 4.25 7.25 4 6.85 3.65L6.85 3.65Q6.9 3.6 6.9 3.5L6.9 3.5Q6.9 3.2 6.45 2.9L6.45 2.9Q6.15 1.85 5.6 1.6L5.6 1.6 4.25 0.2Q4.2 0.2 4.13 0.25 4.05 0.3 4 0.3L4 0.3Q3.8 0.3 3.25 0.03 2.7-0.25 2.35-0.25L2.35-0.25Q2.25-0.25 2.3-0.2L2.3-0.2Q2.3-0.15 2.3-0.15L2.3-0.15Q2.3-0.15 2.3-0.15 2.3-0.15 2.3-0.2L2.3-0.2Q2.2-0.3 2.1-0.3L2.1-0.3Q2.05-0.3 2-0.25L2-0.25 2-0.3Q2-0.5 1.6-0.65L1.6-0.65Q1.25-0.8 1.25-0.45L1.25-0.45 1.3-0.4 1.35-0.45Q1.3-0.25 1.1-0.25L1.1-0.25Q1-0.25 0.78-0.3 0.55-0.35 0.45-0.35L0.45-0.35Q0.05-1.15-0.1-1.2L-0.1-1.2-0.1-1.55Q0.15-1.95 0.15-2.75L0.15-2.75Q0.15-3.05 0.95-3.4L0.95-3.4Q2.5-2.9 4.78-2.23 7.05-1.55 10.1-0.75L10.1-0.75Q10.3-0.7 10.33-1.03 10.35-1.35 10.55-1.5L10.55-1.5Q10.6-1.85 11.05-2.5L11.05-2.5 11.05-2.6Q11.25-3 11.4-3.5 11.55-4 12.3-5L12.3-5 12.5-5.8Q12.7-6.05 12.75-6.18 12.8-6.3 12.95-6.4L12.95-6.4 12.95-6.5Q12.95-6.65 13-6.7L13-6.7 13.1-6.65 13.1-7Q13.4-7.65 13.78-8.33 14.15-9 14.55-9.75L14.55-9.75Q14.95-10.6 16.3-12.75 17.65-14.9 19.85-18.25L19.85-18.25Q20.9-19.85 21.95-21.48 23-23.1 24.1-24.7L24.1-24.7Q24.85-24.7 24.85-25.4L24.85-25.4Q24.85-25.55 24.65-25.6L24.65-25.6Q22.9-26 20.5-26.05L20.5-26.05 16.4-26.2Q15.95-26.9 15.85-26.9L15.85-26.9Q15.75-26.9 15.55-26.25L15.55-26.25Q9.35-25.75 6.25-24.6L6.25-24.6Q5.25-24.2 4.25-23.45L4.25-23.45Q2.95-22.45 2.95-21.75L2.95-21.75Q2.95-21.65 3.03-21.53 3.1-21.4 3.1-21.35L3.1-21.35Q3.1-21.25 3.05-21.2L3.05-21.2Q3.15-21 3.33-20.73 3.5-20.45 3.7-20.2L3.7-20.2 4.35-20.05Q6.35-19.05 7.75-19.05L7.75-19.05Q7.85-19.05 7.98-19.1 8.1-19.15 8.2-19.15L8.2-19.15Q8.95-19.15 8.95-18.7L8.95-18.7Q8.95-18.4 8.25-18.3L8.25-18.3Q8.2-18.5 7.95-18.8L7.95-18.8 7.7-18.5Q7.65-18.55 7.6-18.55L7.6-18.55Q7.55-18.55 7.5-18.53 7.45-18.5 7.35-18.45L7.35-18.45 7.05-18.75Q6.85-18.45 6.2-18.45L6.2-18.45Q6.1-18.45 6.05-18.53 6-18.6 5.95-18.6L5.95-18.6 5.9-18.6 5.85-18.55Q5.75-18.55 5.78-18.63 5.8-18.7 5.7-18.7L5.7-18.7Q5.65-18.7 5.63-18.65 5.6-18.6 5.55-18.6L5.55-18.6Q5.35-18.6 5.2-18.8L5.2-18.8 5.05-18.6Q4.7-18.8 4.7-18.85L4.7-18.85Q4.55-18.8 4.25-18.8L4.25-18.8Q4.2-18.8 4.08-18.9 3.95-19 3.9-19L3.9-19Q2.65-19.4 2.15-19.95L2.15-19.95Q1.9-20.1 1.65-20.28 1.4-20.45 1.4-20.8L1.4-20.8Q1.4-20.85 1.3-20.85L1.3-20.85Q1.1-21.25 1.1-21.4L1.1-21.4Q1.1-22.6 1.7-23.35L1.7-23.35 1.7-23.65 2.1-24.05 2.25-23.9Q2.3-23.95 2.25-24.1L2.25-24.1Q2.25-24.2 2.3-24.2L2.3-24.2 2.4-24.2Q2.4-24.15 2.45-24.15L2.45-24.15Q2.5-24.15 2.6-24.35 2.7-24.55 2.8-24.55L2.8-24.55Q2.95-24.6 3.33-24.65 3.7-24.7 3.55-25.05L3.55-25.05Q3.65-24.95 3.7-25L3.7-25Q4.1-25.25 4.2-25.25L4.2-25.25Q4.3-25.25 4.35-25.2L4.35-25.2 4.45-25.2Q4.55-25.2 4.95-25.55 5.35-25.9 5.4-26L5.4-26 5.7-26 5.85-25.9Q5.9-25.9 6.15-26.08 6.4-26.25 6.45-26.25L6.45-26.25Q6.5-26.25 6.63-26.18 6.75-26.1 6.85-26.1L6.85-26.1Q7.4-26.1 7.7-26.4 8-26.7 8.2-26.7L8.2-26.7Q8.35-26.7 8.55-26.4L8.55-26.4 9.55-26.85Q9.65-26.85 9.55-26.75L9.55-26.75Q9.55-26.7 9.6-26.7L9.6-26.7Q10.2-26.85 10.05-26.85L10.05-26.85Q10.15-26.85 10.33-26.78 10.5-26.7 10.6-26.7L10.6-26.7Q10.5-26.7 10.9-26.85L10.9-26.85Q11-26.9 11.1-26.95 11.2-27 11.4-27.05L11.4-27.05Q11.5-27.05 11.6-26.95 11.7-26.85 11.75-26.85L11.75-26.85Q11.85-26.85 12.18-27 12.5-27.15 12.6-27.15L12.6-27.15 12.9-27.15Q13.05-27.1 13.2-27.1L13.2-27.1Q13.3-27.1 13.5-27.2 13.7-27.3 13.8-27.3L13.8-27.3Q13.9-27.3 13.95-27.25L13.95-27.25 14.15-27.25Q14.4-27.25 14.8-27.35 15.2-27.45 15.4-27.45L15.4-27.45 15.85-27.45Q16.1-27.45 16.35-27.25L16.35-27.25 16.5-27.35 16.5-27.3Q16.5-27.25 16.6-27.25L16.6-27.25Q16.65-27.25 16.75-27.35 16.85-27.45 16.9-27.45L16.9-27.45Q17-27.45 17.1-27.4 17.2-27.35 17.3-27.35L17.3-27.35Q17.4-27.35 17.65-27.48 17.9-27.6 18-27.6L18-27.6Q18.1-27.6 18.25-27.48 18.4-27.35 18.5-27.35L18.5-27.35Q18.55-27.35 18.73-27.4 18.9-27.45 19-27.45L19-27.45 19.2-27.3Q19.3-27.45 19.5-27.45L19.5-27.45 20.55-27.45Q20.9-27.45 21.15-27.43 21.4-27.4 21.6-27.4L21.6-27.4Q21.65-27.4 21.7-27.45L21.7-27.45 21.85-27.45Q22.1-27.45 22.45-27.4 22.8-27.35 23.3-27.25L23.3-27.25Q23.8-27.15 24.1-27.1 24.4-27.05 24.5-27.05L24.5-27.05Q24.7-27.05 25.15-27 25.6-26.95 25.8-26.95L25.8-26.95 26-26.95Q26.1-27 26.25-27L26.25-27Q26.4-27 26.6-26.85L26.6-26.85Q26.85-27.25 28.9-29L28.9-29Q30.95-30.8 31-30.8L31-30.8Q31.05-30.8 31.9-31.65L31.9-31.65Q31.95-31.65 31.98-31.6 32-31.55 32.05-31.55L32.05-31.55Q32.1-31.55 32.13-31.65 32.15-31.75 32.25-31.75L32.25-31.75Q32.3-31.75 32.35-31.7L32.35-31.7 32.45-31.7Q32.55-31.7 32.75-31.85 32.95-32 33-32L33-32Q33.1-32 33.13-31.93 33.15-31.85 33.2-31.9L33.2-31.9Q34.35-32.35 34.3-32.35L34.3-32.35Q34.5-32.35 34.6-32.25L34.6-32.25 34.75-32.25Q34.85-32.25 34.95-32.25 35.05-32.25 35.2-32.3L35.2-32.3Q35.5-32 35.65-32L35.65-32Q35.7-32 35.85-32.05 36-32.1 36.05-32.1L36.05-32.1 36.05-32.1 36.1-32.1 36.05-32.1Q36.05-32 36.4-31.85L36.4-31.85Q36.5-31.85 36.7-32.05L36.7-32.05Q36.7-31.85 36.85-31.6L36.85-31.6Q36.9-31.65 36.9-31.8L36.9-31.8Q37.2-31.6 37.4-31.3L37.4-31.3Q37.5-31.05 37.95-30.7L37.95-30.7 37.95-30.65Q37.95-30.45 38.2-30.2L38.2-30.2Q38.2-29.95 38.38-29.45 38.55-28.95 38.55-28.7L38.55-28.7Q38.55-28.3 38.15-28.3L38.15-28.3Q38-28.3 38.05-28.65L38.05-28.65Q37.95-28.75 37.8-28.75L37.8-28.75Q37.45-29.2 37.5-29.5L37.5-29.5Q37.1-29.75 37.1-29.75L37.1-29.75Q37-29.75 36.95-29.7L36.95-29.7Q36.9-29.75 36.9-29.95L36.9-29.95 36.45-29.95Q36.35-29.95 36.27-30.03 36.2-30.1 36.15-30.1L36.15-30.1Q36.05-30.1 35.85-30.08 35.65-30.05 35.4-30L35.4-30Q34.85-29.6 34.6-29.6L34.6-29.6Q34.6-29.6 34.55-29.48 34.5-29.35 34.4-29.35L34.4-29.35Q34.3-29.35 34.18-29.45 34.05-29.55 33.95-29.55L33.95-29.55Q33.6-29.55 33.5-29.1L33.5-29.1 33.4-29.2Q32.15-27.55 31.15-27.55L31.15-27.55Q31.05-27.55 31.08-27.6 31.1-27.65 31-27.65L31-27.65Q30.9-27.65 30.5-27.05L30.5-27.05 30.1-26.4Q30.3-26.2 30.65-26.2L30.65-26.2Q30.8-26.2 30.9-26.25L30.9-26.25 31.15-26.25Q31.2-26.25 31.3-26.2 31.4-26.15 31.45-26.15L31.45-26.15Q31.7-26.15 32.02-26 32.35-25.85 32.5-25.85L32.5-25.85Q32.7-25.85 33-26L33-26Q33-26 33.4-25.8 33.8-25.6 34.05-25.6L34.05-25.6Q34.3-25.6 34.45-25.65L34.45-25.65 34.8-25.65Q34.9-25.65 35.43-25.35 35.95-25.05 36.2-25.05L36.2-25.05Q36.25-25.05 36.3-25.1L36.3-25.1 36.4-25.1Q36.45-25.1 37-24.88 37.55-24.65 37.65-24.65L37.65-24.65 37.75-24.65Q37.8-24.7 37.9-24.7L37.9-24.7Q38.25-24.7 39-24.4 39.75-24.1 40.85-23.55L40.85-23.55 43.15-22.45Q43.35-22.45 43.25-22.6L43.25-22.6Q43.65-22.4 44.2-22 44.75-21.6 45.4-21.05L45.4-21.05Q45.5-20.9 45.98-20.6 46.45-20.3 46.6-20.3L46.6-20.3 46.6-20.25Q46.6-19.9 47.2-19.75L47.2-19.75 47.25-19.55 48.1-18.95Q48.1-18.9 48.1-18.8 48.1-18.7 48.15-18.6L48.15-18.6Q48.7-18.3 48.9-17.82 49.1-17.35 49.15-17.3L49.15-17.3 49.15-17.2Q49.2-17.15 49.33-17.15 49.45-17.15 49.65-17.1L49.65-17.1Q49.75-16.85 49.88-16.63 50-16.4 50.25-16.45L50.25-16.45 50.25-16.35Q50.25-16 50.8-15.05L50.8-15.05 50.8-14.7Q50.75-14.6 50.75-14.45L50.75-14.45Q50.75-14.15 51.03-13.5 51.3-12.85 51.3-12.55L51.3-12.55Q51.3-12.45 51.25-12.38 51.2-12.3 51.15-12.25L51.15-12.25Q51.2-12.2 51.2-11.5L51.2-11.5Q51.2-11.25 51.05-11L51.05-11Q51.05-10.85 51.05-10.63 51.05-10.4 51.1-10.15L51.1-10.15Q51-10.1 50.7-9.8L50.7-9.8Q50.75-9.55 50.75-9.4 50.75-9.25 50.75-9.25L50.75-9.25Q50.75-9.05 50.7-8.95L50.7-8.95Q50.55-8.9 50.4-8.85 50.25-8.8 50.05-8.7L50.05-8.7Q50.05-8.7 50.25-8.6 50.45-8.5 50.45-8.45L50.45-8.45Q50.2-8.15 50.15-8.05L50.15-8.05Q50.2-7.85 50.2-7.75L50.2-7.75Q49.9-7.25 49.9-6.85L49.9-6.85Q49.45-6.7 49.1-6.05L49.1-6.05Q48.9-6.05 48.9-6L48.9-6 48.95-5.9Q48.75-5.75 48.68-5.65 48.6-5.55 48.1-5.25L48.1-5.25Q47.65-5.05 47.65-4.9L47.65-4.9Q47.25-3.95 46.45-3.6L46.45-3.6Q46.4-3.6 46.45-3.25L46.45-3.25Q46.4-3.2 46.1-3.2L46.1-3.2Q44.5-2.05 44.05-2.05L44.05-2.05Q44-2.05 43.98-2.1 43.95-2.15 43.9-2.15L43.9-2.15Q43.85-2.15 43.38-1.73 42.9-1.3 42.85-1.3L42.85-1.3 42.75-1.3Q42.75-1.35 42.7-1.35L42.7-1.35Q42.6-1.35 42.25-1.2 41.9-1.05 41.8-1L41.8-1Q41.75-1 41.63-0.88 41.5-0.75 41.4-0.75L41.4-0.75Q41.35-0.75 41.35-0.8L41.35-0.8 41.3-0.8Q41.25-0.8 41.25-0.75 41.25-0.7 41-0.6L41-0.6 39.9-0.15Q39.3 0.1 38.85 0.7L38.85 0.7Q38.75 0.6 38.65 0.6L38.65 0.6Q38.6 0.6 38.5 0.68 38.4 0.75 38.35 0.75L38.35 0.75Q38.3 0.75 38.3 0.7L38.3 0.7 38.25 0.7Q38.1 0.7 37.83 0.85 37.55 1 37.45 1L37.45 1Q37.35 1 37.3 0.95L37.3 0.95 37.1 0.95 37.05 1.05Q36.9 1.4 36.55 1.4L36.55 1.4 36.15 1.3Q36.1 1.3 36.08 1.4 36.05 1.5 36 1.5L36 1.5Q35.9 1.5 35.75 1.4 35.6 1.3 35.6 1.3L35.6 1.3Q35.45 1.3 35.35 1.43 35.25 1.55 35.2 1.55L35.2 1.55Q35.15 1.55 35.08 1.45 35 1.35 34.9 1.35L34.9 1.35Q34.7 1.35 34.55 1.65L34.55 1.65Q33.95 1.9 32.77 2.2 31.6 2.5 29.85 2.8L29.85 2.8 28.65 2.8Q28.45 2.8 28.08 2.9 27.7 3 27.5 3L27.5 3Q27.4 3 27.5 2.9L27.5 2.9 27.45 2.9Q27.3 2.9 27.2 3L27.2 3 27.1 3Q26.95 3 26.58 2.95 26.2 2.9 26 2.9L26 2.9Q25.95 2.9 25.9 2.98 25.85 3.05 25.8 3.05L25.8 3.05 25.25 3.05Q25.05 3 24.95 3 24.85 3 24.75 3L24.75 3Q24.55 3 24.2 3 23.85 3 23.3 3.05L23.3 3.05Q22.8 3.1 22.45 3.1 22.1 3.1 21.95 3.1L21.95 3.1Q21.85 3.1 21.75 3.03 21.65 2.95 21.6 2.95L21.6 2.95Q21.05 2.95 19.93 2.9 18.8 2.85 18.25 2.85L18.25 2.85Q18.2 2.85 18.1 2.93 18 3 17.95 3L17.95 3Q17.9 3 17.8 2.93 17.7 2.85 17.65 2.85L17.65 2.85Q17.6 2.85 17.5 2.9 17.4 2.95 17.35 2.95L17.35 2.95 17.35 2.8 17.3 2.8Q17.15 2.8 17.05 2.85L17.05 2.85 16.8 2.85Q16.45 2.85 13.75 2.4L13.75 2.4 13.65 2.25Q13.6 2.4 13.45 2.4L13.45 2.4Q13.4 2.4 13.3 2.33 13.2 2.25 13.15 2.25L13.15 2.25 13.05 2.25Q13.05 2.25 12.85 2.35L12.85 2.35 12.7 2.2 12.55 2.25 12.55 2.05Q12.65 2.05 12.95 1.95 13.25 1.85 13.35 1.85L13.35 1.85Q13.4 1.85 13.5 1.95 13.6 2.05 13.7 2.05L13.7 2.05Q13.75 2.05 13.78 2 13.8 1.95 13.85 1.95L13.85 1.95Q13.85 1.95 14.1 2.35L14.1 2.35 14.8 1.95Q14.9 1.95 15.08 2.05 15.25 2.15 15.35 2.15L15.35 2.15 15.95 2.1Q17.2 2.2 18.7 2.3 20.2 2.4 21.95 2.35L21.95 2.35 25.2 2.25Q25.3 2.4 25.45 2.4L25.45 2.4Q25.5 2.4 25.53 2.33 25.55 2.25 25.65 2.25L25.65 2.25Q25.7 2.25 25.78 2.33 25.85 2.4 25.95 2.4L25.95 2.4Q26.15 2.4 26.55 2.23 26.95 2.05 27.15 2.05L27.15 2.05Q27.2 2.05 27.38 2.1 27.55 2.15 27.65 2.15L27.65 2.15Q27.95 2.15 28 2.2L28 2.2Q28.1 2.1 28.15 1.95L28.15 1.95Q28.3 2.15 28.65 2.15L28.65 2.15Q28.95 2.15 29.55 1.95 30.15 1.75 30.45 1.75L30.45 1.75Q31.7 1.75 33.8 0.95L33.8 0.95Q35.9 0.15 36.6 0.15L36.6 0.15Q37.1-0.25 37.2-0.25L37.2-0.25Q37.25-0.25 37.25-0.2L37.25-0.2 37.3-0.2Q37.35-0.2 37.45-0.35 37.55-0.5 37.65-0.5L37.65-0.5Q37.75-0.5 37.9-0.4 38.05-0.3 38.1-0.3L38.1-0.3Q38.2-0.3 38.5-0.68 38.8-1.05 38.9-1.05L38.9-1.05Q38.9-1.05 38.9-1.05L38.9-1.05 38.9-1.05Q38.9-1.05 38.95-0.9L38.95-0.9Q39.75-1.4 40.1-1.4L40.1-1.4Q40.15-1.4 40.25-1.3L40.25-1.3 41.25-1.8Q42.5-2.6 42.4-2.6L42.4-2.6 42.5-2.6Q42.55-2.55 42.6-2.55L42.6-2.55Q42.5-2.55 43.2-3.05 43.9-3.55 44.8-4.4L44.8-4.4Q45.35-4.6 46.2-5.85L46.2-5.85Q46.35-6 47.3-7.9L47.3-7.9Q48.3-9.9 48.3-11.65L48.3-11.65Q48.3-17.4 37.6-22.7L37.6-22.7 36.95-22.85Q36.25-23 35.95-23.15 35.65-23.3 35.7-23.3L35.7-23.3 35.5-23.25Q34.85-23.85 34.5-23.85L34.5-23.85Q34.4-23.85 34.25-23.7L34.25-23.7Q34.2-23.9 33.95-23.9L33.95-23.9 33.75-23.9Q33.65-23.85 33.55-23.85L33.55-23.85Q33.15-23.85 32.48-24.28 31.8-24.7 31.45-24.7L31.45-24.7Q31.15-24.7 30.95-24.65L30.95-24.65 30.45-24.65Q30.4-24.65 30.25-24.85 30.1-25.05 30-25.05L30-25.05Q29.95-25.05 29.93-25 29.9-24.95 29.85-24.95L29.85-24.95Q29.8-24.95 29.78-25 29.75-25.05 29.7-25.05L29.7-25.05Q29.65-25.05 29.63-24.98 29.6-24.9 29.5-24.9L29.5-24.9Q29.3-24.9 29-24.93 28.7-24.95 28.3-25L28.3-25 28-24.7Q28-24.7 27.7-24.8L27.7-24.8Q27.65-24.75 27.6-24.58 27.55-24.4 27.5-24.15L27.5-24.15Q27.45-23.85 27.3-23.85L27.3-23.85Q27.2-23.85 26.95-24L26.95-24Q24.25-21.4 19.95-15.15L19.95-15.15Q17.95-12.35 16.9-10.63 15.85-8.9 15.65-8.35L15.65-8.35 15.65-8.25Q15.65-8 15.3-7.45L15.3-7.45Q15.3-7.3 15.1-7.2 14.9-7.1 14.8-7L14.8-7 14.05-5.4Q14.05-5.35 14.03-5.23 14-5.1 13.95-4.95L13.95-4.95 13.1-3.65 12.5-2.15Q12.45-2.05 12.28-1.83 12.1-1.6 11.85-1.25L11.85-1.25 11.85-1.15Q11.85-0.95 11.7-0.65L11.7-0.65 11.8-0.6Q11.8-0.4 11.6-0.35L11.6-0.35Q11.8-0.3 16 0.25L16 0.25Q17.4 0.45 18.3 0.53 19.2 0.6 19.55 0.6L19.55 0.6 20.05 0.6 20.05 0.8Q19.7 1.25 19.15 1.25L19.15 1.25Q19.1 1.25 19.05 1.2L19.05 1.2 18.95 1.2Q18.9 1.2 18.9 1.35L18.9 1.35Q18.75 1.4 18.35 1.4L18.35 1.4Q18.6 1.4 18.25 1.35 17.9 1.3 16.95 1.2L16.95 1.2Q16.7 1.2 16.28 1.18 15.85 1.15 15.3 1.1L15.3 1.1Q15.2 1.1 15.1 1.03 15 0.95 14.75 0.95L14.75 0.95 14.2 0.95Q14 0.85 13.6 0.95L13.6 0.95Q13.55 0.95 13.48 0.88 13.4 0.8 13.35 0.8L13.35 0.8Q13.25 0.8 13.05 0.85 12.85 0.9 12.75 0.9L12.75 0.9Q12.65 0.9 12.6 0.7L12.6 0.7Q12.5 0.8 12.35 0.8L12.35 0.8 12.25 0.7Q12.15 0.75 11.75 0.75L11.75 0.75Q11.75 0.75 11.55 0.65 11.35 0.55 11.1 0.6L11.1 0.6 11.1 0.55Q11.05 0.55 11.05 0.6 11.05 0.65 10.95 0.7L10.95 0.7Q10.9 0.75 10.8 1.03 10.7 1.3 10.6 1.85L10.6 1.85Q9.95 2.3 10 3.4L10 3.4Q9.55 3.75 9.55 4.3L9.55 4.3Q9.55 5 9.25 5.4L9.25 5.4Q9.55 5.5 9.8 6.4 10.05 7.3 10.05 7.7L10.05 7.7Q10.05 8.15 9.7 8.45L9.7 8.45Q9.65 8.4 9.55 8.3 9.45 8.2 9.35 8.1L9.35 8.1Q9.35 8.1 9.35 8.05 9.35 8 9.4 7.95L9.4 7.95Q9.4 7.8 9.38 7.65 9.35 7.5 9.3 7.3L9.3 7.3Q9.35 7.25 9.35 7.05L9.35 7.05Q9.35 6.95 9.05 6.15L9.05 6.15Q8.7 6.7 8.7 7.15L8.7 7.15Q8.7 7.35 8.8 7.55L8.8 7.55Q8.5 7.6 8.4 8L8.4 8 8.5 8.1Q8.3 8.4 8.4 8.8L8.4 8.8Q8.4 8.95 8.2 9L8.2 9Q8.45 9.25 8.45 9.3L8.45 9.3Q8.45 9.5 8.4 9.55L8.4 9.55ZM8.25 4.35L8.25 4.35 8.7 3.45Q8.75 3.3 8.83 3.03 8.9 2.75 9.1 2.35L9.1 2.35 9.1 2.05 9.55 1.2Q9.6 0.8 9.8 0.35L9.8 0.35Q9.7 0.35 9.55 0.28 9.4 0.2 9.3 0.2L9.3 0.2Q9.25 0.2 9.3 0.15L9.3 0.15Q9.3 0.1 9.25 0.1L9.25 0.1Q9.15 0.1 9.05 0.15 8.95 0.2 8.9 0.2L8.9 0.2Q8.85 0.2 8.85 0.1L8.85 0.1 8.8 0.1 8.45 0.2Q8.25 0.2 8.3 0.05L8.3 0.05Q8.1 0.1 8 0.13 7.9 0.15 7.8 0.15L7.8 0.15Q7.75 0.15 7.65 0.03 7.55-0.1 7.45-0.1L7.45-0.1Q7.4-0.1 7.2 0.05 7 0.2 6.95 0.2L6.95 0.2Q6.85 0.2 6.68 0 6.5-0.2 6.4-0.2L6.4-0.2Q6.35-0.2 6.35-0.15L6.35-0.15 6.3-0.15Q6.2-0.15 6.03-0.28 5.85-0.4 5.75-0.4L5.75-0.4Q5.7-0.4 5.55-0.3 5.4-0.2 5.35-0.2L5.35-0.2Q5.25-0.2 5.08-0.35 4.9-0.5 4.85-0.5L4.85-0.5 4.85-0.15Q5.3 0.15 6.15 1.1L6.15 1.1 6.25 1.5Q6.25 1.45 6.4 1.4L6.4 1.4Q6.55 1.4 7.8 3.1L7.8 3.1Q7.85 3.1 7.85 3.15L7.85 3.15 7.8 3.1 7.8 3.1 7.8 3.5Q7.8 3.95 8.25 4.35ZM52.8 0.8L52.8 0.8Q52.75 0.8 52.67 0.73 52.6 0.65 52.5 0.65L52.5 0.65Q52.55 0.65 52.3 0.75L52.3 0.75 51.7 0 51.7-1.25 51.8-1.35 51.8-1.45Q51.8-1.55 51.87-1.7 51.95-1.85 52-2.05L52-2.05Q51.95-2.1 51.95-2.25L51.95-2.25Q51.95-2.5 52.3-2.7L52.3-2.7Q52.25-2.85 52.3-3.2L52.3-3.2 52.45-3.5Q52.55-3.65 52.4-3.8L52.4-3.8 52.6-4.9Q52.65-4.95 52.75-5.25L52.75-5.25 52.95-7.05Q52.9-7.1 52.9-7.25L52.9-7.25Q53-7.45 53-7.5L53-7.5Q53-7.85 52.95-7.95 52.9-8.05 52.85-8.15L52.85-8.15Q52.9-8.35 52.9-8.65L52.9-8.65Q52.9-9.1 52.55-9.1L52.55-9.1Q52.55-9.1 52.47-9.08 52.4-9.05 52.25-9L52.25-9 52.2-9.2 52.2-9.25Q52.2-9.5 52.65-9.75L52.65-9.75Q52.7-9.75 52.7-9.7L52.7-9.7 52.8-9.7Q53-9.7 53.2-9.9L53.2-9.9 53.95-9.3Q54-9.3 53.9-9.05L53.9-9.05 54.15-8.7 54.15-7.5Q54.2-7.4 54.22-7.35 54.25-7.3 54.25-7.25L54.25-7.25Q54.25-7.2 54.2-7.15 54.15-7.1 54.15-7L54.15-7 54.15-5.25Q54.1-5.25 54.05-5.2L54.05-5.2Q54.1-5.15 54.1-3.95L54.1-3.95Q54.1-3.85 54-3.65 53.9-3.45 53.9-3.4L53.9-3.4Q53.9-3.35 54-3.15L54-3.15 54.1-3.15Q54.1-3.15 54.35-3.9L54.35-3.9 54.5-3.9Q54.5-4 54.5-4.13 54.5-4.25 54.55-4.45L54.55-4.45 55.2-5.2Q55.25-5.3 55.35-5.48 55.45-5.65 55.55-5.85L55.55-5.85Q55.6-5.95 55.9-6.25L55.9-6.25Q55.95-6.35 56-6.48 56.05-6.6 56.15-6.8L56.15-6.8 56.5-7.1Q56.5-7.2 56.62-7.33 56.75-7.45 56.8-7.6L56.8-7.6Q57.05-7.65 57.15-8.1L57.15-8.1Q57.45-8.25 57.95-8.75L57.95-8.75 57.95-8.95Q58.35-9.3 58.3-9.3L58.3-9.3 58.35-9.3Q58.35-9.25 58.4-9.25L58.4-9.25Q58.35-9.25 59-10L59-10Q59.25-10.1 59.85-10.8L59.85-10.8Q60.2-10.95 60.65-11.3L60.65-11.3 61.1-11.3 61.65-11.2Q61.9-11.1 62.2-10.83 62.5-10.55 62.65-9.85L62.65-9.85 62.65-9.35Q62.65-9.25 62.62-9.03 62.6-8.8 62.55-8.45L62.55-8.45Q62.5-7.7 61.25-6.55L61.25-6.55Q61.05-6.55 60.7-6.3L60.7-6.3 60.7-6.85Q60.8-6.95 60.9-7.13 61-7.3 61.1-7.5L61.1-7.5Q61.1-7.6 60.7-7.7L60.7-7.7Q61-8.3 61-8.45L61-8.45Q61-8.6 60.85-8.8L60.85-8.8Q60.75-8.75 60.7-8.72 60.65-8.7 60.65-8.7L60.65-8.7Q60.25-8.7 60.3-8.75L60.3-8.75Q60.25-8.8 60.25-9L60.25-9 60.15-9Q60.05-9 59.85-8.83 59.65-8.65 59.6-8.65L59.6-8.65Q59.55-8.65 59.55-8.7L59.55-8.7 59.45-8.7Q59.4-8.7 59.3-8.6 59.2-8.5 59.1-8.5L59.1-8.5Q59-8.5 58.9-8.65L58.9-8.65Q58.8-8.65 58.75-8.6L58.75-8.6Q58.85-8.4 58.75-8.15L58.75-8.15Q58.55-7.85 58.35-7.85L58.35-7.85Q58.3-7.85 58.22-7.9 58.15-7.95 58.1-7.95L58.1-7.95Q58.1-7.7 58.15-7.6L58.15-7.6 57.75-7.1Q57.65-7 57.5-7L57.5-7Q57.45-7 57.35-7.1L57.35-7.1 57.1-6.4 57.05-6.4Q56.8-6.4 56.3-5.75L56.3-5.75 56.1-5.65Q55.45-4.5 54.97-3.75 54.5-3 54.25-2.7L54.25-2.7 54.25-2.3Q53.9-2.05 53.85-1.25L53.85-1.25Q53.75-1.15 53.65-0.9L53.65-0.9Q53.75-0.7 53.65-0.3L53.65-0.3Q53.6-0.25 53.55-0.08 53.5 0.1 53.4 0.4L53.4 0.4Q53.15 0.8 52.8 0.8ZM67.3 0.4L67.3 0.4 67.3 0.4Q67.34 0.4 67.2 0.25L67.2 0.25Q67.09 0.35 66.75 0.35L66.75 0.35Q66.65 0.35 66.47 0.28 66.3 0.2 66.25 0.2L66.25 0.2Q66.2 0.2 66.02 0.25 65.84 0.3 65.75 0.3L65.75 0.3Q65.7 0.3 65.45 0.23 65.2 0.15 65.09 0.15L65.09 0.15Q65.05-0.5 63.95-0.35L63.95-0.35 63.95-0.45Q63.95-0.8 63.8-1 63.65-1.2 63.55-1.65L63.55-1.65Q63.5-1.7 63.37-1.88 63.25-2.05 63.25-2.6L63.25-2.6Q63.25-2.6 63.35-2.8L63.35-2.8Q63.4-2.85 63.25-3.05L63.25-3.05Q63.3-3.1 63.45-3.85L63.45-3.85Q63.5-4.1 63.52-4.25 63.55-4.4 63.55-4.5L63.55-4.5Q63.25-4.75 63.25-4.95L63.25-4.95 63.4-5.3Q63.45-5.25 63.75-5.25L63.75-5.25 63.95-5.25Q64.05-5.4 64.17-5.58 64.3-5.75 64.5-5.95L64.5-5.95Q64.8-5.95 65.05-6.5L65.05-6.5 65-6.7Q65.05-6.8 65.09-6.85L65.09-6.85Q65.09-6.85 65.15-6.85L65.15-6.85Q65.15-6.85 65.15-6.85 65.15-6.85 65.09-6.85L65.09-6.85Q65.15-6.85 65.25-6.8L65.25-6.8Q65.3-6.85 65.45-7 65.59-7.15 65.95-7.4L65.95-7.4Q66.09-7.6 66.45-7.9L66.45-7.9Q67.05-8.3 67.12-8.3 67.2-8.3 67.55-8.6L67.55-8.6Q67.65-8.55 67.7-8.53 67.75-8.5 67.75-8.5L67.75-8.5Q67.84-8.5 68.55-8.85L68.55-8.85Q68.5-8.65 68.65-8.65L68.65-8.65 69-8.65Q69.25-8.8 69.25-8.8L69.25-8.8Q69.75-8.8 70.45-8.25L70.45-8.25Q70.5-8.2 70.59-8.2L70.59-8.2 70.59-7.4Q70.5-7.4 70.4-7.5L70.4-7.5 70.2-7.05Q70.4-6.75 70.4-6.75L70.4-6.75Q70.3-6.7 69.9-5.9L69.9-5.9 69.9-5.5Q69.7-5.5 69.55-5.45L69.55-5.45Q68.75-4.9 68.65-4.9L68.65-4.9 68.55-4.9Q68.5-4.95 68.45-4.95L68.45-4.95Q68.25-4.95 67.9-4.75L67.9-4.75Q67.84-4.7 67.75-4.58 67.65-4.45 67.5-4.45L67.5-4.45 67.45-4.45Q67.45-4.5 67.4-4.5L67.4-4.5Q67.3-4.5 66.87-4.33 66.45-4.15 66.4-4.15L66.4-4.15 66.3-4.15Q66.25-4.2 66.2-4.2L66.2-4.2 66.05-4.05 65.75-4.05Q65.55-4.05 65.45-4.15L65.45-4.15 64.8-4.15Q64.8-3.95 64.67-3.55 64.55-3.15 64.55-3.1L64.55-3.1Q64.55-2.95 64.9-2.4L64.9-2.4Q64.95-2.35 65.09-2.18 65.25-2 65.55-1.75L65.55-1.75Q65.65-1.55 65.84-1.35L65.84-1.35Q65.95-1.3 66.05-1.3 66.15-1.3 66.3-1.25L66.3-1.25 66.45-1.05Q66.59-1.15 66.9-1.05L66.9-1.05 67.15-0.9Q67.4-0.9 67.4-0.9L67.4-0.9Q67.4-0.95 67.4-0.95L67.4-0.95Q67.45-0.9 67.4-0.9L67.4-0.9Q67.45-0.85 67.5-0.85L67.5-0.85Q67.55-0.85 67.62-0.93 67.7-1 67.75-1L67.75-1 67.84-1Q67.84-0.95 67.9-0.95L67.9-0.95Q68.05-0.95 68.25-1.15L68.25-1.15Q68.4-1.1 68.55-1.15L68.55-1.15 68.59-1.1 68.59-0.95Q68.5-0.9 68.34-0.8 68.2-0.7 67.95-0.6L67.95-0.6 67.95-0.4Q67.95-0.35 68.15-0.35L68.15-0.35Q69-0.35 69.5-0.85L69.5-0.85Q69.59-0.8 69.65-0.78 69.7-0.75 69.7-0.75L69.7-0.75Q69.8-0.75 69.8-0.85L69.8-0.85 70.05-0.85Q70.15-0.9 70.34-1.13 70.55-1.35 70.75-1.35L70.75-1.35 70.95-1.3 71.09-1.7 71.25-1.6Q71.34-1.7 71.7-1.7L71.7-1.7Q71.7-1.7 71.7-1.75 71.7-1.8 71.75-1.85L71.75-1.85Q72.25-1.95 73-2.7L73-2.7 73.2-2.7 73.95-3.3Q73.95-3.4 74.09-3.6L74.09-3.6Q74.15-3.6 74.25-3.5L74.25-3.5 74.7-4.1Q74.84-4.1 75.05-4.25L75.05-4.25 75.2-4.1 74.84-3.65Q74.55-3.45 74.09-3.05 73.65-2.65 73.09-2.1L73.09-2.1Q72.75-2.1 72.7-1.9L72.7-1.9Q72.25-1.7 72.09-1.45L72.09-1.45 71.95-1.6Q71.9-1.55 71.67-1.38 71.45-1.2 70.95-0.95L70.95-0.95Q70.84-0.85 70.65-0.68 70.45-0.5 70.25-0.5L70.25-0.5Q70.15-0.5 70.2-0.55L70.2-0.55 70.15-0.55Q69.95-0.55 69.75-0.4 69.55-0.25 69.55-0.15L69.55-0.15Q69.5-0.15 69.4-0.25L69.4-0.25Q68.75 0.1 68.65 0.1L68.65 0.1 68.55 0.1 68.5 0.05 67.75 0.25Q67.75 0.25 67.75 0.2 67.75 0.15 67.7 0.1L67.7 0.1 67.55 0.3Q67.5 0.3 67.42 0.35 67.34 0.4 67.3 0.4L67.3 0.4Q67.3 0.4 67.3 0.4ZM66.09-4.65L66.09-4.65Q66.05-4.8 66.2-4.8L66.2-4.8Q66.25-4.8 66.25-4.75L66.25-4.75 66.34-4.75Q66.4-4.75 66.57-4.9 66.75-5.05 66.8-5.05L66.8-5.05Q66.84-5.05 66.95-5 67.05-4.95 67.09-4.95L67.09-4.95Q67-4.95 67.34-5.3L67.34-5.3 67.5-5.2Q68.65-5.95 68.65-6.5L68.65-6.5Q68.65-7.15 68.02-7.3 67.4-7.45 66.84-7.6L66.84-7.6Q66.75-7.5 66.65-7.5L66.65-7.5Q66.4-7.1 66.09-6.9L66.09-6.9Q66-6.9 65.5-6.4L65.5-6.4Q65.5-6.35 65.2-5.95L65.2-5.95Q65.09-5.6 65.02-5.4 64.95-5.2 64.95-5.1L64.95-5.1Q65.15-4.75 65.34-4.75L65.34-4.75 65.4-4.75Q65.45-4.8 65.5-4.8L65.5-4.8Q65.75-4.8 66.09-4.65ZM70.4-6.75L70.4-6.75Q70.4-6.75 70.4-6.75 70.4-6.75 70.4-6.75L70.4-6.75ZM75.4-4.35L75.4-4.35 75.4-4.45Q75.4-4.75 75.7-4.8L75.7-4.8Q75.65-4.6 75.4-4.35ZM74.64 1.25L74.64 1.25Q74.59 1.25 74.44 1.18 74.29 1.1 73.94 0.7L73.94 0.7 73.94 0.55Q73.84 0.4 73.79 0.28 73.74 0.15 73.74 0.15L73.74 0.15Q73.79 0.05 73.84-0.3L73.84-0.3Q73.99-0.45 74.04-1.05L74.04-1.05 74.29-1.3 74.54-2.35Q74.69-2.5 74.74-2.8L74.74-2.8 74.74-3.05Q75.19-4.1 75.14-4.9L75.14-4.9Q75.34-5.1 75.34-5.45L75.34-5.45Q75.34-5.7 75.27-5.8 75.19-5.9 75.14-6L75.14-6Q75.09-6.25 75.14-6.45L75.14-6.45Q75.14-6.45 75.14-6.48 75.14-6.5 75.19-6.55L75.19-6.55Q75.19-6.55 75.17-6.75 75.14-6.95 75.09-7.35L75.09-7.35Q75.04-7.45 74.99-7.6 74.94-7.75 74.89-8.05L74.89-8.05Q74.84-8.15 74.79-8.25 74.74-8.35 74.69-8.5L74.69-8.5Q74.34-8.55 74.34-8.6L74.34-8.6 74.19-8.55Q74.14-8.7 74.12-8.83 74.09-8.95 74.09-9.05L74.09-9.05Q74.09-9.05 74.39-9.18 74.69-9.3 74.84-9.3L74.84-9.3Q74.89-9.3 75.02-9.22 75.14-9.15 75.19-9.15L75.19-9.15 75.29-9.15Q75.29-9.2 75.39-9.2L75.39-9.2Q75.24-9.2 75.89-8.75L75.89-8.75Q75.99-8.45 76.19-8.4L76.19-8.4Q76.19-8.35 76.09-8.25L76.09-8.25Q76.09-8.25 76.49-7.15L76.49-7.15Q76.54-6.95 76.57-6.63 76.59-6.3 76.59-5.75L76.59-5.75 76.59-4.4Q76.84-4.15 76.89-4.15L76.89-4.15Q77.09-4.15 77.14-4.5L77.14-4.5Q77.24-4.55 77.42-4.65 77.59-4.75 77.79-4.85L77.79-4.85Q77.84-5 78.19-5.35L78.19-5.35Q78.24-5.5 78.14-5.6L78.14-5.6 78.49-5.95Q78.49-6.2 78.64-6.4L78.64-6.4Q78.79-6.5 79.04-6.8 79.29-7.1 79.34-7.1L79.34-7.1Q79.34-7.1 79.34-7.1L79.34-7.1 79.34-7.1Q79.39-7.05 79.44-7.05L79.44-7.05Q79.49-7.1 79.49-7.3L79.49-7.3Q79.59-7.3 79.64-7.25L79.64-7.25 79.89-7.55 79.89-7.85Q80.39-8.2 80.39-8.35L80.39-8.35 80.99-8.65Q81.04-8.7 81.32-8.95 81.59-9.2 82.09-9.75L82.09-9.75 82.39-9.9 83.79-10.95Q84.04-10.95 84.27-11.15 84.49-11.35 84.59-11.35L84.59-11.35 84.79-11.25 84.79-11.35 84.99-11.35Q84.94-11.2 85.19-11 85.44-10.8 85.74-10.2L85.74-10.2Q85.89-9.95 85.69-9.75L85.69-9.75Q85.64-9.7 85.69-9.4L85.69-9.4Q85.84-9.05 85.84-8.95L85.84-8.95 85.69-8.4 85.74-8.15Q85.74-8.15 85.64-7.9 85.54-7.65 85.34-7.1L85.34-7.1 85.09-6.6 85.09-6.4 85.19-6.3 85.99-7.1Q86.19-7.1 86.54-7.3L86.54-7.3Q86.59-7.4 86.64-7.53 86.69-7.65 86.69-7.7L86.69-7.7Q87.09-7.5 87.24-7.5L87.24-7.5 87.39-7.5Q87.44-7.55 87.54-7.55L87.54-7.55Q87.84-7.55 88.14-7.05L88.14-7.05Q88.24-6.85 88.59-6.45L88.59-6.45 88.44-6.15Q88.44-5.95 88.74-5.8L88.74-5.8 88.74-5.5Q88.74-5.35 88.74-5.2 88.74-5.05 88.69-4.9L88.69-4.9 89.04-4.3Q89.04-4.2 88.99-4.1L88.99-4.1Q88.99-3.75 89.44-3.05L89.44-3.05 89.44-2.95Q89.44-2.45 90.14-2.15L90.14-2.15 90.49-1.7Q90.54-1.7 90.89-1.93 91.24-2.15 91.29-2.15L91.29-2.15Q91.29-2.15 91.44-2.05L91.44-2.05Q91.49-2.15 92.29-2.65L92.29-2.65Q92.34-2.7 92.44-2.7 92.54-2.7 92.64-2.75L92.64-2.75Q92.64-2.75 92.64-2.75L92.64-2.75 92.64-2.75Q92.59-2.7 92.57-2.63 92.54-2.55 92.44-2.4L92.44-2.4Q92.24-2.3 91.92-2.13 91.59-1.95 91.19-1.75L91.19-1.75Q90.89-1.45 90.29-0.95 89.69-0.45 88.94-0.55L88.94-0.55Q88.84-0.65 88.72-0.73 88.59-0.8 88.39-0.85L88.39-0.85 88.24-1.05Q87.84-1.2 87.57-1.78 87.29-2.35 87.04-2.9L87.04-2.9 86.79-3.95 86.79-4.2Q86.79-4.25 86.72-4.4 86.64-4.55 86.49-5.4L86.49-5.4Q86.29-5.9 86.04-5.9L86.04-5.9Q85.99-5.95 85.89-5.85 85.79-5.75 85.74-5.75L85.74-5.75Q85.64-5.85 85.64-5.85L85.64-5.85Q85.64-6.3 83.94-4.35L83.94-4.35Q83.84-4.25 83.59-4.1 83.34-3.95 82.99-3.7L82.99-3.7 82.99-3.55Q82.99-3 82.34-2.65L82.34-2.65 82.09-2.85Q82.09-3 82.14-3.33 82.19-3.65 82.19-3.8L82.19-3.8 82.29-3.8Q82.29-3.75 82.34-3.75L82.34-3.75 82.49-4.6Q82.89-4.85 82.79-5.4L82.79-5.4Q82.99-5.6 83.07-5.83 83.14-6.05 83.29-6.5L83.29-6.5Q83.29-6.55 83.27-6.6 83.24-6.65 83.24-6.7L83.24-6.7Q83.24-7 83.34-7.38 83.44-7.75 83.59-8.15L83.59-8.15 83.59-8.85 83.39-9 83.39-9.35 83.24-9.45Q83.04-9.3 82.74-9.13 82.44-8.95 81.99-8.75L81.99-8.75Q81.79-8.6 81.84-8.6L81.84-8.6 81.79-8.6Q81.79-8.65 81.74-8.65L81.74-8.65Q81.64-8.65 81.09-7.9L81.09-7.9Q80.89-7.7 80.57-7.38 80.24-7.05 79.84-6.55L79.84-6.55 79.59-6.4 78.29-4.9Q78.19-4.7 78.19-4.6L78.19-4.6Q78.04-4.45 77.94-4.45L77.94-4.45 77.59-3.9Q77.49-3.8 77.44-3.75 77.39-3.7 77.39-3.45L77.39-3.45Q76.99-3.2 76.64-2.5L76.64-2.5Q76.64-2.2 76.59-2L76.59-2Q76.39-1.65 76.29-1.15 76.19-0.65 76.09 0L76.09 0Q75.79 0.25 75.39 0.8L75.39 0.8Q75.14 0.9 74.89 1.2L74.89 1.2Q74.79 1.25 74.72 1.25 74.64 1.25 74.64 1.25ZM73.74 0.15L73.74 0.15Q73.74 0.15 73.74 0.15 73.74 0.15 73.74 0.15L73.74 0.15Q73.74 0.15 73.74 0.15ZM98.84-0.05L98.29 0.05Q98.29 0.05 97.94-0.15L97.94-0.15Q97.79-0.15 97.49-0.2 97.19-0.25 96.59-0.55L96.59-0.55Q96.49-0.6 96.32-0.68 96.14-0.75 95.94-0.9L95.94-0.9Q95.89-1.15 95.49-1.65L95.49-1.65 95.39-1.65 95.24-1.55Q95.19-1.8 94.94-2L94.94-2Q94.94-2.2 94.74-2.45L94.74-2.45Q94.84-2.85 94.74-3.35L94.74-3.35Q94.64-3.65 94.34-3.95L94.34-3.95 94.49-4.15Q94.59-4.35 94.69-4.63 94.79-4.9 94.89-5.25L94.89-5.25Q94.94-5.45 94.99-5.7 95.04-5.95 95.14-6.3L95.14-6.3Q95.09-6.35 94.67-6.7 94.24-7.05 93.94-6.9L93.94-6.9Q93.99-7 93.99-7.08 93.99-7.15 93.99-7.15L93.99-7.15Q93.99-7.2 93.89-7.28 93.79-7.35 93.79-7.45L93.79-7.45Q93.79-7.45 93.94-7.63 94.09-7.8 94.14-7.8L94.14-7.8Q94.24-7.8 94.47-7.7 94.69-7.6 94.79-7.6L94.79-7.6Q94.84-7.6 94.94-7.65 95.04-7.7 95.09-7.7L95.09-7.7 95.94-7.5Q96.04-7.5 96.24-7.6L96.24-7.6 97.49-8.85Q97.64-8.85 97.67-8.93 97.69-9 98.19-9.45L98.19-9.45Q98.24-9.45 98.37-9.5 98.49-9.55 98.74-9.8L98.74-9.8 98.89-10.05Q100.34-11.05 101.44-11.05L101.44-11.05 101.79-11.05Q101.69-10.95 101.89-10.95L101.89-10.95Q101.94-10.95 102.04-11 102.14-11.05 102.19-11.05L102.19-11.05 102.49-10.85 102.79-10.85Q102.99-10.65 102.99-10.65L102.99-10.65Q103.04-10.65 103.04-10.7L103.04-10.7 103.09-10.7Q102.99-10.7 103.29-10.4L103.29-10.4Q103.29-10.4 103.04-9.6L103.04-9.6Q102.89-9.5 102.62-9.2 102.34-8.9 102.24-8.9L102.24-8.9Q102.19-8.9 102.02-9 101.84-9.1 101.74-9.1L101.74-9.1Q101.69-9.1 101.44-9 101.19-8.9 101.09-8.8L101.09-8.8Q101.04-8.75 100.87-8.68 100.69-8.6 99.69-8.25L99.69-8.25Q99.74-7.9 99.54-7.85L99.54-7.85Q99.19-7.8 99.09-7.6L99.09-7.6 99.09-7.55Q99.34-7.3 100.24-7.3L100.24-7.3Q100.29-7.3 100.37-7.35 100.44-7.4 100.54-7.4L100.54-7.4Q100.59-7.4 100.64-7.35L100.64-7.35 100.74-7.35Q100.79-7.35 100.89-7.43 100.99-7.5 101.04-7.5L101.04-7.5Q101.14-7.5 101.64-7.35 102.14-7.2 102.19-7.2L102.19-7.2Q102.39-7.2 102.49-7.45L102.49-7.45 102.69-7.3 102.94-7.3Q102.99-7.3 103.14-7.45L103.14-7.45 103.14-7.55Q102.74-7.8 102.54-7.8L102.54-7.8 102.54-8.2 102.79-8.3Q102.84-8.3 102.89-8.25L102.89-8.25 102.99-8.25 103.44-8.4Q103.59-8.1 103.79-7.9L103.79-7.9Q103.84-7.9 103.84-8L103.84-8Q103.99-7.95 104.27-7.73 104.54-7.5 104.64-7.5L104.64-7.5Q104.69-7.5 104.79-7.58 104.89-7.65 104.99-7.7L104.99-7.7 105.24-7.7Q105.69-7.7 106.24-7.9L106.24-7.9 106.39-7.8Q106.54-7.95 106.74-7.95L106.74-7.95Q106.84-7.95 106.84-7.9L106.84-7.9 106.89-7.9 107.44-8Q107.54-8.1 107.79-8.15 108.04-8.2 108.64-8.2L108.64-8.2Q108.69-8.2 108.69-8.25L108.69-8.25Q108.89-8.35 109.12-8.4 109.34-8.45 109.64-8.5L109.64-8.5Q109.69-8.55 109.87-8.65 110.04-8.75 110.49-8.85L110.49-8.85Q110.59-8.85 110.69-8.85 110.79-8.85 110.99-8.9L110.99-8.9 111.14-9.05Q111.19-9.05 111.19-9L111.19-9 111.24-9Q111.04-9 111.94-9.4L111.94-9.4Q111.99-9.35 111.99-9.25 111.99-9.15 112.04-9L112.04-9Q111.89-9 111.84-8.8L111.84-8.8Q111.34-8.75 111.14-8.4L111.14-8.4 110.39-8.1Q110.29-8.1 110.17-8.1 110.04-8.1 109.84-8.05L109.84-8.05 109.39-7.8Q109.34-7.8 109.29-7.85 109.24-7.9 109.19-7.9L109.19-7.9Q109.24-7.9 108.92-7.75 108.59-7.6 108.34-7.6L108.34-7.6 108.29-7.6Q108.29-7.65 108.24-7.65L108.24-7.65 108.09-7.5Q107.89-7.45 107.57-7.45 107.24-7.45 106.84-7.4L106.84-7.4Q106.84-7.35 106.79-7.3L106.79-7.3Q106.89-7.3 106.77-7.28 106.64-7.25 106.39-7.2L106.39-7.2Q106.24-7.2 105.99-7.2 105.74-7.2 105.39-7.15L105.39-7.15Q105.34-7.15 105.24-7.05L105.24-7.05 105.89-6.3 105.89-6.15Q105.89-6.15 105.94-6.1 105.99-6.05 106.24-5.65L106.24-5.65Q106.39-5.35 106.24-5.3L106.24-5.3Q106.39-4.8 106.39-4.95L106.39-4.95Q106.39-4.9 106.34-4.7 106.29-4.5 106.19-4.15L106.19-4.15Q106.09-4 105.99-3.78 105.89-3.55 105.79-3.25L105.79-3.25Q105.64-3.05 105.34-2.73 105.04-2.4 104.54-1.9L104.54-1.9Q104.54-1.85 104.32-1.73 104.09-1.6 103.84-1.25L103.84-1.25Q103.54-1.1 103.12-0.93 102.69-0.75 102.14-0.5L102.14-0.5Q101.94-0.45 101.62-0.38 101.29-0.3 100.89-0.25L100.89-0.25Q100.74-0.2 100.49-0.1 100.24 0 99.84 0L99.84 0Q98.99 0 98.84-0.05L98.84-0.05ZM98.74-0.45L98.74-0.45Q98.74-0.4 98.77-0.48 98.79-0.55 98.84-0.55L98.84-0.55 99.24-0.45Q99.54-0.45 99.62-0.53 99.69-0.6 99.84-0.6L99.84-0.6 100.04-0.6Q100.19-0.55 100.29-0.55L100.29-0.55Q100.34-0.55 100.44-0.63 100.54-0.7 100.59-0.7L100.59-0.7Q100.69-0.7 100.69-0.65L100.69-0.65 100.84-0.75 101.49-0.75Q101.49-0.75 101.82-0.83 102.14-0.9 102.44-1.1L102.44-1.1 102.84-1.35Q103.24-1.6 103.54-1.73 103.84-1.85 103.99-1.95L103.99-1.95Q104.74-2.5 104.99-3.15L104.99-3.15Q104.99-3.3 105.07-3.53 105.14-3.75 105.14-3.8L105.14-3.8Q105.14-4 104.94-4.2L104.94-4.2Q104.94-4.3 104.97-4.5 104.99-4.7 105.04-4.95L105.04-4.95 104.94-5.05Q104.84-5.45 104.59-5.85L104.59-5.85Q104.54-5.85 104.49-5.9 104.44-5.95 104.39-6.35L104.39-6.35 104.14-6.55 104.14-6.8 103.59-6.8Q103.54-6.8 103.49-6.85 103.44-6.9 103.39-6.9L103.39-6.9 103.14-6.9Q102.59-6.65 102.59-6.6L102.59-6.6 102.64-6.6Q102.64-6.6 102.59-6.6L102.59-6.6 102.19-6.75Q102.19-6.75 101.94-6.65 101.69-6.55 101.39-6.55L101.39-6.55Q101.34-6.55 101.29-6.63 101.24-6.7 101.14-6.7L101.14-6.7Q101.09-6.7 100.94-6.58 100.79-6.45 100.74-6.45L100.74-6.45Q100.64-6.45 100.62-6.5 100.59-6.55 100.54-6.55L100.54-6.55Q100.49-6.55 100.39-6.5 100.29-6.45 100.24-6.45L100.24-6.45Q100.24-6.45 100.24-6.45L100.24-6.45 100.24-6.45Q100.24-6.45 99.89-6.65L99.89-6.65Q99.89-6.25 99.59-6.25L99.59-6.25Q99.39-6.25 99.39-6.6L99.39-6.6Q99.19-6.55 99.07-6.48 98.94-6.4 98.79-6.4L98.79-6.4 98.64-6.4 98.49-6.55Q98.44-6.4 98.24-6.4L98.24-6.4Q98.09-6.4 98.04-6.45L98.04-6.45 98.04-6.6Q97.99-6.55 97.89-6.5 97.79-6.45 97.69-6.4L97.69-6.4 97.69-6.35Q97.69-6.1 97.39-5.9 97.09-5.7 96.54-5.4L96.54-5.4Q96.54-5.35 96.57-5.28 96.59-5.2 96.59-5.15L96.59-5.15Q96.59-4.65 96.14-4.5L96.14-4.5 95.69-3.15Q95.79-3.15 95.79-3.1L95.79-3.1 96.34-1.45Q96.39-1.45 96.44-1.5L96.44-1.5 96.59-1.5Q96.74-1.5 96.84-1.18 96.94-0.85 97.14-0.85L97.14-0.85Q97.19-0.85 97.19-0.9L97.19-0.9 97.24-0.9Q97.19-0.9 97.64-0.7L97.64-0.7Q97.64-0.7 97.94-0.6L97.94-0.6 98.04-0.7Q98.74-0.55 98.74-0.45Z" opacity="1" transform="matrix(1,0,0,1,0,0)" fill="#ddd2c6" class="wordmark-text-0" data-fill-palette-color="primary" id="text-0"></path></svg></g></svg></g></svg></g></svg></g></svg></g></svg></g></svg></g><path d="M220.547 71.939L220.547 18.866 11.079 18.866 11.079 228.334 220.547 228.334 220.547 175.261 212.311 175.261 212.311 220.099 19.314 220.099 19.314 27.101 212.311 27.101 212.311 71.939Z" fill="#ddd2c6" stroke="transparent" data-fill-palette-color="tertiary"></path></svg></g><defs></defs></svg><rect width="395.52" height="247.2" fill="none" stroke="none" visibility="hidden"></rect></g></svg></g></svg>